<svg width="24" height="24" viewBox="0 0 24 24" fill="none" xmlns="http://www.w3.org/2000/svg">
<g clip-path="url(#clip0)">
<path d="M6.2 19.2C4.88 19.2 3.8 20.28 3.8 21.6C3.8 22.92 4.88 24 6.2 24C7.52 24 8.6 22.92 8.6 21.6C8.6 20.28 7.52 19.2 6.2 19.2ZM-1 0V2.4H1.4L5.72 11.52L4.04 14.4C3.92 14.76 3.8 15.24 3.8 15.6C3.8 16.92 4.88 18 6.2 18H20.6V15.6H6.68C6.56 15.6 6.44 15.48 6.44 15.36V15.24L7.52 13.2H16.4C17.36 13.2 18.08 12.72 18.44 12L22.76 4.2C23 3.96 23 3.84 23 3.6C23 2.88 22.52 2.4 21.8 2.4H4.04L2.96 0H-1ZM18.2 19.2C16.88 19.2 15.8 20.28 15.8 21.6C15.8 22.92 16.88 24 18.2 24C19.52 24 20.6 22.92 20.6 21.6C20.6 20.28 19.52 19.2 18.2 19.2Z" fill="#C61515"/>
</g>
<defs>
<clipPath id="clip0">
<rect width="24" height="24" fill="white"/>
</clipPath>
</defs>
</svg>
